<svg xmlns="http://www.w3.org/2000/svg" version="1.1" xmlns:xlink="http://www.w3.org/1999/xlink" xmlns:svgjs="http://svgjs.com/svgjs" width="1440" height="560" preserveAspectRatio="none" viewBox="0 0 1440 560"><g mask="url(&quot;#SvgjsMask1011&quot;)" fill="none"><rect width="1440" height="560" x="0" y="0" fill="rgba(237, 249, 254, 1)"></rect><path d="M536.54 620.58C709.29 565.84 758.64 71.4 1005.13 67.53 1251.61 63.66 1341.56 306.57 1473.71 313.93" stroke="rgba(51,121,194,0.58)" stroke-width="2"></path><path d="M399.11 577.98C594.49 552.86 706.57 107.91 1030.14 106.11 1353.71 104.31 1496.8 289.02 1661.17 290.91" stroke="rgba(51,121,194,0.58)" stroke-width="2"></path><path d="M686.8 640.65C786.33 615.7 753.74 346.09 971.74 345.24 1189.73 344.39 1395.85 467.74 1541.61 468.44" stroke="rgba(51,121,194,0.58)" stroke-width="2"></path><path d="M296.35 562.58C478.38 558.09 619.13 305.77 975.89 300.49 1332.65 295.21 1480.09 128.25 1655.43 126.89" stroke="rgba(51,121,194,0.58)" stroke-width="2"></path><path d="M217.12 614.19C363.54 596.45 445.73 269.74 694.05 266.95 942.37 264.16 932.52 336.95 1170.98 336.95 1409.45 336.95 1527.4 267.14 1647.91 266.95" stroke="rgba(51,121,194,0.58)" stroke-width="2"></path></g><defs><mask id="SvgjsMask1011"><rect width="1440" height="560" fill="#ffffff"></rect></mask></defs></svg>