<svg xmlns="http://www.w3.org/2000/svg" version="1.1" xmlns:xlink="http://www.w3.org/1999/xlink" xmlns:svgjs="http://svgjs.com/svgjs" width="1440" height="700" preserveAspectRatio="none" viewBox="0 0 1440 700"><g mask="url(&quot;#SvgjsMask1162&quot;)" fill="none"><rect width="1440" height="700" x="0" y="0" fill="rgba(237, 249, 254, 1)"></rect><path d="M6 700L706 0L883 0L183 700z" fill="url(#SvgjsLinearGradient1163)"></path><path d="M530.2 700L1230.2 0L1488.2 0L788.2 700z" fill="url(#SvgjsLinearGradient1163)"></path><path d="M1391 700L691 0L14.5 0L714.5 700z" fill="url(#SvgjsLinearGradient1164)"></path><path d="M931.8 700L231.79999999999995 0L-270.70000000000005 0L429.29999999999995 700z" fill="url(#SvgjsLinearGradient1164)"></path><path d="M823.4337667897549 700L1440 83.43376678975494L1440 700z" fill="url(#SvgjsLinearGradient1163)"></path><path d="M0 700L616.5662332102451 700L 0 83.43376678975494z" fill="url(#SvgjsLinearGradient1164)"></path></g><defs><mask id="SvgjsMask1162"><rect width="1440" height="700" fill="#ffffff"></rect></mask><linearGradient x1="0%" y1="100%" x2="100%" y2="0%" id="SvgjsLinearGradient1163"><stop stop-color="rgba(15, 70, 185, 0.2)" offset="0"></stop><stop stop-opacity="0" stop-color="rgba(15, 70, 185, 0.2)" offset="0.66"></stop></linearGradient><linearGradient x1="100%" y1="100%" x2="0%" y2="0%" id="SvgjsLinearGradient1164"><stop stop-color="rgba(15, 70, 185, 0.2)" offset="0"></stop><stop stop-opacity="0" stop-color="rgba(15, 70, 185, 0.2)" offset="0.66"></stop></linearGradient></defs></svg>